<?xml version="1.0" encoding="utf-8"?>
<!-- Generator: Adobe Illustrator 26.5.0, SVG Export Plug-In . SVG Version: 6.00 Build 0)  -->
<svg version="1.1" id="Layer_1" xmlns="http://www.w3.org/2000/svg" xmlns:xlink="http://www.w3.org/1999/xlink" x="0px" y="0px"
	 width="186.7px" height="61px" viewBox="0 0 186.7 61" style="enable-background:new 0 0 186.7 61;" xml:space="preserve">
<style type="text/css">
	.st0{fill:#FFFFFF;stroke:#000000;stroke-linecap:round;stroke-linejoin:round;stroke-miterlimit:10;}
</style>
<path class="st0" d="M11.2,1.1"/>
<rect x="42.6" y="16.1" class="st0" width="34.9" height="44.4"/>
<rect x="79.8" y="31.3" class="st0" width="35.4" height="29.2"/>
<polygon class="st0" points="36,32.1 0.5,32.1 7.5,6.1 43,6.1 "/>
<polygon class="st0" points="37,47.5 40.5,60.5 5,60.5 1.5,47.5 5,34.5 40.5,34.5 "/>
<polyline class="st0" points="149,30.5 145.9,15.5 149,0.5 117.2,0.5 114,15.5 117.2,30.5 117.2,30.5 120.3,45.5 117.2,60.5 
	149,60.5 152.2,45.5 149,30.5 "/>
<rect x="150.8" y="0.5" class="st0" width="35.4" height="29.2"/>
<rect x="163.5" y="52.3" class="st0" width="10" height="8.2"/>
</svg>
