<?xml version="1.0" encoding="utf-8"?>
<!-- Generator: Adobe Illustrator 26.5.0, SVG Export Plug-In . SVG Version: 6.00 Build 0)  -->
<svg version="1.1" id="Layer_1" xmlns="http://www.w3.org/2000/svg" xmlns:xlink="http://www.w3.org/1999/xlink" x="0px" y="0px"
	 width="186.1px" height="61px" viewBox="0 0 186.1 61" style="enable-background:new 0 0 186.1 61;" xml:space="preserve">
<style type="text/css">
	.st0{fill:#FFFFFF;}
</style>
<g>
	<path class="st0" d="M44,16.1h30.9c1.1,0,2,0.9,2,2v40.4c0,1.1-0.9,2-2,2H44c-1.1,0-2-0.9-2-2V18.1C42,17,42.9,16.1,44,16.1z"/>
	<path d="M44,16.1v0.5h30.9c0.8,0,1.5,0.7,1.5,1.5v40.4c0,0.8-0.7,1.5-1.5,1.5H44c-0.8,0-1.5-0.7-1.5-1.5V18.1
		c0-0.8,0.7-1.5,1.5-1.5V16.1v-0.5c-1.4,0-2.5,1.1-2.5,2.5v40.4c0,1.4,1.1,2.5,2.5,2.5h0h30.9l0,0c1.4,0,2.5-1.1,2.5-2.5V18.1
		c0-1.4-1.1-2.5-2.5-2.5H44V16.1z"/>
	<path class="st0" d="M81.2,31.3h31.4c1.1,0,2,0.9,2,2v25.2c0,1.1-0.9,2-2,2H81.2c-1.1,0-2-0.9-2-2V33.3
		C79.2,32.2,80.1,31.3,81.2,31.3z"/>
	<path d="M81.2,31.3v0.5h31.4c0.8,0,1.5,0.7,1.5,1.5v25.2c0,0.8-0.7,1.5-1.5,1.5H81.2c-0.8,0-1.5-0.7-1.5-1.5V33.3
		c0-0.8,0.7-1.5,1.5-1.5V31.3v-0.5c-1.4,0-2.5,1.1-2.5,2.5v25.2c0,1.4,1.1,2.5,2.5,2.5h0h31.4l0,0c1.4,0,2.5-1.1,2.5-2.5V33.3
		c0-1.4-1.1-2.5-2.5-2.5H81.2V31.3z"/>
	<path class="st0" d="M33.9,32.1H2.5c-1.3,0-2.3-1.2-1.9-2.5l5.9-22c0.2-0.9,1-1.5,1.9-1.5h31.4c1.3,0,2.3,1.2,1.9,2.5l-5.9,22
		C35.6,31.5,34.8,32.1,33.9,32.1z"/>
	<path d="M33.9,32.1v-0.5H2.5c-0.4,0-0.8-0.2-1.1-0.4c-0.3-0.3-0.4-0.7-0.4-1c0-0.1,0-0.3,0.1-0.4L7,7.7c0.2-0.7,0.8-1.1,1.4-1.1
		h31.4c0.4,0,0.8,0.2,1.1,0.4c0.3,0.3,0.4,0.7,0.4,1c0,0.1,0,0.3-0.1,0.4l-5.9,22c-0.2,0.7-0.8,1.1-1.4,1.1V32.1v0.5
		c1.1,0,2.1-0.8,2.4-1.9l5.9-22c0.1-0.2,0.1-0.4,0.1-0.7c0-1.3-1.1-2.5-2.5-2.5H8.4C7.3,5.6,6.3,6.4,6,7.5l-5.9,22
		C0,29.7,0,29.9,0,30.1c0,1.3,1.1,2.5,2.5,2.5h31.4L33.9,32.1z"/>
	<path class="st0" d="M36.5,48l2.7,10c0.3,1.3-0.6,2.5-1.9,2.5H5.9C5,60.5,4.2,59.9,4,59L1,48c-0.1-0.3-0.1-0.7,0-1l3-11
		c0.2-0.9,1-1.5,1.9-1.5h31.4c1.3,0,2.3,1.2,1.9,2.5l-2.7,10C36.4,47.3,36.4,47.7,36.5,48z"/>
	<path d="M36.5,48L36,48.1l2.7,10c0,0.1,0.1,0.3,0.1,0.4c0,0.4-0.2,0.8-0.4,1c-0.3,0.3-0.6,0.4-1.1,0.4H5.9c-0.7,0-1.3-0.5-1.4-1.1
		l-3-11c0-0.1-0.1-0.3-0.1-0.4c0-0.1,0-0.3,0.1-0.4l3-11C4.7,35.5,5.2,35,5.9,35h31.4c0.4,0,0.8,0.2,1.1,0.4c0.3,0.3,0.4,0.7,0.4,1
		c0,0.1,0,0.3-0.1,0.4l-2.7,10C36,47.1,36,47.3,36,47.5c0,0.2,0,0.4,0.1,0.6L36.5,48l0.5-0.1c0-0.1-0.1-0.3-0.1-0.4
		c0-0.1,0-0.3,0.1-0.4l2.7-10c0.1-0.2,0.1-0.4,0.1-0.7c0-1.3-1.1-2.5-2.5-2.5H5.9c-1.1,0-2.1,0.8-2.4,1.9l-3,11
		c-0.1,0.2-0.1,0.4-0.1,0.6c0,0.2,0,0.4,0.1,0.6l3,11C3.8,60.2,4.8,61,5.9,61l0,0h31.4h0c1.4,0,2.5-1.2,2.5-2.5c0-0.2,0-0.4-0.1-0.7
		l-2.7-10L36.5,48z"/>
	<path class="st0" d="M148.4,30.5l-3-14.6c-0.1-0.3-0.1-0.5,0-0.8l2.5-12.2c0.3-1.2-0.7-2.4-2-2.4h-27.7c-0.9,0-1.8,0.7-2,1.6
		l-2.8,13c-0.1,0.3-0.1,0.6,0,0.8l3.1,14.6l3,14.6c0.1,0.3,0.1,0.5,0,0.8l-2.5,12.2c-0.3,1.2,0.7,2.4,2,2.4h27.7
		c0.9,0,1.8-0.7,2-1.6l2.8-13c0.1-0.3,0.1-0.6,0-0.8L148.4,30.5"/>
	<path d="M148.9,30.4l-3-14.6c0-0.1,0-0.2,0-0.3c0-0.1,0-0.2,0-0.3L148.4,3c0-0.2,0.1-0.3,0.1-0.5c0-1.3-1.1-2.5-2.5-2.5h-27.7
		c-1.2,0-2.2,0.8-2.4,2L113,15c0,0.2-0.1,0.3-0.1,0.5c0,0.2,0,0.3,0.1,0.5l3.1,14.6l0,0l3,14.6c0,0.1,0,0.2,0,0.3c0,0.1,0,0.2,0,0.3
		L116.6,58v0c0,0.2-0.1,0.3-0.1,0.5c0,1.3,1.1,2.5,2.5,2.5h0h27.7l0,0c1.2,0,2.2-0.8,2.4-2l2.8-13c0-0.2,0.1-0.3,0.1-0.5
		c0-0.2,0-0.3-0.1-0.5L148.9,30.4c-0.1-0.3-0.3-0.4-0.6-0.4c-0.3,0.1-0.4,0.3-0.4,0.6l3.1,14.6c0,0.1,0,0.2,0,0.3c0,0.1,0,0.2,0,0.3
		l-2.8,13c-0.1,0.7-0.8,1.2-1.5,1.2H119c-0.8,0-1.5-0.7-1.5-1.5c0-0.1,0-0.2,0-0.3v0l2.5-12.2c0-0.2,0.1-0.3,0.1-0.5
		c0-0.2,0-0.3-0.1-0.5l-3-14.6l0,0L114,15.8c0-0.1,0-0.2,0-0.3c0-0.1,0-0.2,0-0.3l2.8-13c0.1-0.7,0.8-1.2,1.5-1.2h27.7
		c0.8,0,1.5,0.7,1.5,1.5c0,0.1,0,0.2,0,0.3L144.9,15c0,0.2-0.1,0.3-0.1,0.5c0,0.2,0,0.3,0.1,0.5l3,14.6c0.1,0.3,0.3,0.4,0.6,0.4
		C148.8,30.9,148.9,30.7,148.9,30.4L148.9,30.4z"/>
	<path class="st0" d="M152.2,0.5h31.4c1.1,0,2,0.9,2,2v25.2c0,1.1-0.9,2-2,2h-31.4c-1.1,0-2-0.9-2-2V2.5
		C150.2,1.4,151.1,0.5,152.2,0.5z"/>
	<path d="M152.2,0.5V1h31.4c0.8,0,1.5,0.7,1.5,1.5v25.2c0,0.8-0.7,1.5-1.5,1.5h-31.4c-0.8,0-1.5-0.7-1.5-1.5V2.5
		c0-0.8,0.7-1.5,1.5-1.5V0.5V0c-1.4,0-2.5,1.1-2.5,2.5v25.2c0,1.4,1.1,2.5,2.5,2.5h31.4c1.4,0,2.5-1.1,2.5-2.5V2.5
		c0-1.4-1.1-2.5-2.5-2.5h-31.4V0.5z"/>
	<path class="st0" d="M164.9,52.3h6c1.1,0,2,0.9,2,2v4.2c0,1.1-0.9,2-2,2h-6c-1.1,0-2-0.9-2-2v-4.2
		C162.9,53.2,163.8,52.3,164.9,52.3z"/>
	<path d="M164.9,52.3v0.5h6c0.8,0,1.5,0.7,1.5,1.5v4.2c0,0.8-0.7,1.5-1.5,1.5h-6c-0.8,0-1.5-0.7-1.5-1.5v-4.2c0-0.8,0.7-1.5,1.5-1.5
		V52.3v-0.5c-1.4,0-2.5,1.1-2.5,2.5v4.2c0,1.4,1.1,2.5,2.5,2.5h0h6l0,0c1.4,0,2.5-1.1,2.5-2.5v-4.2c0-1.4-1.1-2.5-2.5-2.5h-6V52.3z"
		/>
</g>
</svg>
