<?xml version="1.0" encoding="utf-8"?>
<!-- Generator: Adobe Illustrator 26.5.0, SVG Export Plug-In . SVG Version: 6.00 Build 0)  -->
<svg version="1.1" id="Layer_2" xmlns="http://www.w3.org/2000/svg" xmlns:xlink="http://www.w3.org/1999/xlink" x="0px" y="0px"
	 width="186.7px" height="61px" viewBox="0 0 186.7 61" style="enable-background:new 0 0 186.7 61;" xml:space="preserve">
<style type="text/css">
	.st0{fill:#FFFFFF;}
</style>
<g>
	<path class="st0" d="M44.6,16.1h30.9c1.1,0,2,0.9,2,2v40.4c0,1.1-0.9,2-2,2H44.6c-1.1,0-2-0.9-2-2V18.1
		C42.6,17,43.5,16.1,44.6,16.1z"/>
	<path d="M44.6,16.1v0.5h30.9c0.8,0,1.5,0.7,1.5,1.5v40.4c0,0.8-0.7,1.5-1.5,1.5H44.6c-0.8,0-1.5-0.7-1.5-1.5V18.1
		c0-0.8,0.7-1.5,1.5-1.5V16.1v-0.5c-1.4,0-2.5,1.1-2.5,2.5v40.4c0,1.4,1.1,2.5,2.5,2.5h0h30.9l0,0c1.4,0,2.5-1.1,2.5-2.5V18.1
		c0-1.4-1.1-2.5-2.5-2.5H44.6V16.1z"/>
	<path class="st0" d="M81.8,31.3h31.4c1.1,0,2,0.9,2,2v25.2c0,1.1-0.9,2-2,2H81.8c-1.1,0-2-0.9-2-2V33.3
		C79.8,32.2,80.7,31.3,81.8,31.3z"/>
	<path d="M81.8,31.3v0.5h31.4c0.8,0,1.5,0.7,1.5,1.5v25.2c0,0.8-0.7,1.5-1.5,1.5H81.8c-0.8,0-1.5-0.7-1.5-1.5V33.3
		c0-0.8,0.7-1.5,1.5-1.5V31.3v-0.5c-1.4,0-2.5,1.1-2.5,2.5v25.2c0,1.4,1.1,2.5,2.5,2.5h0h31.4l0,0c1.4,0,2.5-1.1,2.5-2.5V33.3
		c0-1.4-1.1-2.5-2.5-2.5H81.8V31.3z"/>
	<path class="st0" d="M34.5,32.1H3.1c-1.3,0-2.3-1.2-1.9-2.5l5.9-22c0.2-0.9,1-1.5,1.9-1.5h31.4c1.3,0,2.3,1.2,1.9,2.5l-5.9,22
		C36.2,31.5,35.4,32.1,34.5,32.1z"/>
	<path d="M34.5,32.1v-0.5H3.1c-0.4,0-0.8-0.2-1.1-0.4c-0.3-0.3-0.4-0.7-0.4-1c0-0.1,0-0.3,0.1-0.4l5.9-22C7.8,7.1,8.4,6.6,9,6.6
		h31.4c0.4,0,0.8,0.2,1.1,0.4c0.3,0.3,0.4,0.7,0.4,1c0,0.1,0,0.3-0.1,0.4l-5.9,22c-0.2,0.7-0.8,1.1-1.4,1.1V32.1v0.5
		c1.1,0,2.1-0.8,2.4-1.9l5.9-22c0.1-0.2,0.1-0.4,0.1-0.7c0-1.3-1.1-2.5-2.5-2.5H9c-1.1,0-2.1,0.8-2.4,1.9l-5.9,22
		c-0.1,0.2-0.1,0.4-0.1,0.7c0,1.3,1.1,2.5,2.5,2.5h31.4L34.5,32.1z"/>
	<path class="st0" d="M37.1,48l2.7,10c0.3,1.3-0.6,2.5-1.9,2.5H6.5c-0.9,0-1.7-0.6-1.9-1.5l-3-11c-0.1-0.3-0.1-0.7,0-1l3-11
		c0.2-0.9,1-1.5,1.9-1.5h31.4c1.3,0,2.3,1.2,1.9,2.5l-2.7,10C37,47.3,37,47.7,37.1,48z"/>
	<path d="M37.1,48l-0.5,0.1l2.7,10c0,0.1,0.1,0.3,0.1,0.4c0,0.4-0.2,0.8-0.4,1c-0.3,0.3-0.6,0.4-1.1,0.4H6.5c-0.7,0-1.3-0.5-1.4-1.1
		l-3-11c0-0.1-0.1-0.3-0.1-0.4c0-0.1,0-0.3,0.1-0.4l3-11C5.3,35.5,5.9,35,6.5,35h31.4c0.4,0,0.8,0.2,1.1,0.4c0.3,0.3,0.4,0.7,0.4,1
		c0,0.1,0,0.3-0.1,0.4l-2.7,10c-0.1,0.2-0.1,0.4-0.1,0.6c0,0.2,0,0.4,0.1,0.6L37.1,48l0.5-0.1c0-0.1-0.1-0.3-0.1-0.4
		c0-0.1,0-0.3,0.1-0.4l2.7-10c0.1-0.2,0.1-0.4,0.1-0.7c0-1.3-1.1-2.5-2.5-2.5H6.5c-1.1,0-2.1,0.8-2.4,1.9l-3,11
		c-0.1,0.2-0.1,0.4-0.1,0.6c0,0.2,0,0.4,0.1,0.6l3,11C4.4,60.2,5.4,61,6.5,61l0,0h31.4h0c1.4,0,2.5-1.2,2.5-2.5c0-0.2,0-0.4-0.1-0.7
		l-2.7-10L37.1,48z"/>
	<path class="st0" d="M149,30.5l-3-14.6c-0.1-0.3-0.1-0.5,0-0.8l2.5-12.2c0.3-1.2-0.7-2.4-2-2.4h-27.7c-0.9,0-1.8,0.7-2,1.6l-2.8,13
		c-0.1,0.3-0.1,0.6,0,0.8l3.1,14.6l3,14.6c0.1,0.3,0.1,0.5,0,0.8l-2.5,12.2c-0.3,1.2,0.7,2.4,2,2.4h27.7c0.9,0,1.8-0.7,2-1.6l2.8-13
		c0.1-0.3,0.1-0.6,0-0.8L149,30.5"/>
	<path d="M149.5,30.4l-3-14.6c0-0.1,0-0.2,0-0.3c0-0.1,0-0.2,0-0.3L149,3c0-0.2,0.1-0.3,0.1-0.5c0-1.3-1.1-2.5-2.5-2.5h-27.7
		c-1.2,0-2.2,0.8-2.4,2l-2.8,13c0,0.2-0.1,0.3-0.1,0.5c0,0.2,0,0.3,0.1,0.5l3.1,14.6l0,0l3,14.6c0,0.1,0,0.2,0,0.3
		c0,0.1,0,0.2,0,0.3L117.2,58v0c0,0.2-0.1,0.3-0.1,0.5c0,1.3,1.1,2.5,2.5,2.5h0h27.7l0,0c1.2,0,2.2-0.8,2.4-2l2.8-13
		c0-0.2,0.1-0.3,0.1-0.5c0-0.2,0-0.3-0.1-0.5L149.5,30.4c-0.1-0.3-0.3-0.4-0.6-0.4c-0.3,0.1-0.4,0.3-0.4,0.6l3.1,14.6
		c0,0.1,0,0.2,0,0.3c0,0.1,0,0.2,0,0.3l-2.8,13c-0.1,0.7-0.8,1.2-1.5,1.2h-27.7c-0.8,0-1.5-0.7-1.5-1.5c0-0.1,0-0.2,0-0.3v0
		l2.5-12.2c0-0.2,0.1-0.3,0.1-0.5c0-0.2,0-0.3-0.1-0.5l-3-14.6l0,0l-3.1-14.6c0-0.1,0-0.2,0-0.3c0-0.1,0-0.2,0-0.3l2.8-13
		c0.1-0.7,0.8-1.2,1.5-1.2h27.7c0.8,0,1.5,0.7,1.5,1.5c0,0.1,0,0.2,0,0.3L145.5,15c0,0.2-0.1,0.3-0.1,0.5c0,0.2,0,0.3,0.1,0.5
		l3,14.6c0.1,0.3,0.3,0.4,0.6,0.4C149.4,30.9,149.5,30.7,149.5,30.4L149.5,30.4z"/>
	<path class="st0" d="M152.8,0.5h31.4c1.1,0,2,0.9,2,2v25.2c0,1.1-0.9,2-2,2h-31.4c-1.1,0-2-0.9-2-2V2.5
		C150.8,1.4,151.7,0.5,152.8,0.5z"/>
	<path d="M152.8,0.5V1h31.4c0.8,0,1.5,0.7,1.5,1.5v25.2c0,0.8-0.7,1.5-1.5,1.5h-31.4c-0.8,0-1.5-0.7-1.5-1.5V2.5
		c0-0.8,0.7-1.5,1.5-1.5V0.5V0c-1.4,0-2.5,1.1-2.5,2.5v25.2c0,1.4,1.1,2.5,2.5,2.5h31.4c1.4,0,2.5-1.1,2.5-2.5V2.5
		c0-1.4-1.1-2.5-2.5-2.5h-31.4V0.5z"/>
	<path class="st0" d="M165.5,52.3h6c1.1,0,2,0.9,2,2v4.2c0,1.1-0.9,2-2,2h-6c-1.1,0-2-0.9-2-2v-4.2
		C163.5,53.2,164.4,52.3,165.5,52.3z"/>
	<path d="M165.5,52.3v0.5h6c0.8,0,1.5,0.7,1.5,1.5v4.2c0,0.8-0.7,1.5-1.5,1.5h-6c-0.8,0-1.5-0.7-1.5-1.5v-4.2c0-0.8,0.7-1.5,1.5-1.5
		V52.3v-0.5c-1.4,0-2.5,1.1-2.5,2.5v4.2c0,1.4,1.1,2.5,2.5,2.5h0h6l0,0c1.4,0,2.5-1.1,2.5-2.5v-4.2c0-1.4-1.1-2.5-2.5-2.5h-6V52.3z"
		/>
</g>
</svg>
