<?xml version="1.0" encoding="utf-8"?>
<!-- Generator: Adobe Illustrator 26.5.0, SVG Export Plug-In . SVG Version: 6.00 Build 0)  -->
<svg version="1.1" id="Layer_1" xmlns="http://www.w3.org/2000/svg" xmlns:xlink="http://www.w3.org/1999/xlink" x="0px" y="0px"
	 width="186.7px" height="61px" viewBox="0 0 186.7 61" style="enable-background:new 0 0 186.7 61;" xml:space="preserve">
<style type="text/css">
	.st0{fill:#FFFFFF;}
	.st1{fill:none;stroke:#000000;stroke-width:2;stroke-linecap:round;stroke-linejoin:round;stroke-miterlimit:10;}
</style>
<g>
	<path class="st0" d="M11.2,1.1"/>
	<path class="st1" d="M11.2,1.1"/>
</g>
<g>
	<g>
		<path class="st0" d="M37.8,44.6c-0.4,1.6-0.4,4.2,0,5.8l1.9,7.2c0.4,1.6-0.6,2.9-2.2,2.9H8c-1.7,0-3.4-1.3-3.8-2.9l-1.9-7.2
			c-0.4-1.6-0.4-4.2,0-5.8l1.9-7.2c0.4-1.6,2.1-2.9,3.8-2.9h29.5c1.7,0,2.6,1.3,2.2,2.9L37.8,44.6z"/>
	</g>
	<path d="M37.5,61.5H8c-2.1,0-4.2-1.6-4.7-3.6l-1.9-7.2c-0.5-1.8-0.5-4.5,0-6.3l1.9-7.2c0.5-2,2.6-3.6,4.7-3.6h29.5
		c1.1,0,2.1,0.5,2.7,1.2c0.6,0.8,0.8,1.9,0.5,2.9l-1.9,7.2c-0.4,1.4-0.4,3.8,0,5.3l1.9,7.2c0.3,1.1,0.1,2.1-0.5,2.9
		C39.6,61,38.6,61.5,37.5,61.5z M8,35.5c-1.2,0-2.5,1-2.8,2.2l-1.9,7.2c-0.4,1.4-0.4,3.8,0,5.3l1.9,7.2c0.3,1.1,1.6,2.2,2.8,2.2
		h29.5c0.5,0,0.9-0.2,1.1-0.5c0.2-0.3,0.3-0.7,0.2-1.2l-1.9-7.2c-0.5-1.8-0.5-4.5,0-6.3l0,0l1.9-7.2c0.1-0.5,0.1-0.9-0.2-1.2
		c-0.2-0.3-0.6-0.5-1.1-0.5H8z"/>
</g>
<g>
	<g>
		<path class="st0" d="M21,13.8c0-1.6,1.4-3,3-3h28.9c1.7,0,3,1.4,3,3v38.4c0,1.6-1.3,3-3,3H24c-1.6,0-3-1.4-3-3V13.8z"/>
	</g>
	<path d="M52.9,56.2H24c-2.2,0-4-1.8-4-4V13.8c0-2.2,1.8-4,4-4h28.9c2.2,0,4,1.8,4,4v38.4C56.9,54.4,55.1,56.2,52.9,56.2z M24,11.8
		c-1.1,0-2,0.9-2,2v38.4c0,1.1,0.9,2,2,2h28.9c1.1,0,2-0.9,2-2V13.8c0-1.1-0.9-2-2-2H24z"/>
</g>
<g>
	<g>
		<path class="st0" d="M46.4,34.3c0-1.7,1.3-3,3-3h29.4c1.7,0,3,1.3,3,3v23.2c0,1.7-1.3,3-3,3H49.4c-1.7,0-3-1.3-3-3V34.3z"/>
	</g>
	<path d="M78.8,61.5H49.4c-2.2,0-4-1.8-4-4V34.3c0-2.2,1.8-4,4-4h29.4c2.2,0,4,1.8,4,4v23.2C82.8,59.7,81,61.5,78.8,61.5z
		 M49.4,32.3c-1.1,0-2,0.9-2,2v23.2c0,1.1,0.9,2,2,2h29.4c1.1,0,2-0.9,2-2V34.3c0-1.1-0.9-2-2-2H49.4z"/>
</g>
<g>
	<g>
		<path class="st0" d="M37.8,26.1C37.4,27.7,35.7,29,34,29H4.5c-1.7,0-2.6-1.3-2.2-2.9L7.7,5.9C8.1,4.3,9.9,3,11.5,3H41
			c1.7,0,2.6,1.3,2.2,2.9L37.8,26.1z"/>
	</g>
	<path d="M34,30H4.5c-1.1,0-2.1-0.5-2.7-1.2C1.2,28,1,26.9,1.3,25.8L6.8,5.6C7.3,3.6,9.4,2,11.5,2H41c1.1,0,2.1,0.5,2.7,1.2
		c0.6,0.8,0.8,1.9,0.5,2.9l-5.4,20.2C38.2,28.4,36.1,30,34,30z M11.5,4C10.3,4,9,5,8.7,6.2L3.2,26.4c-0.1,0.5-0.1,0.9,0.2,1.2
		C3.6,27.8,4,28,4.5,28H34c1.2,0,2.5-1,2.8-2.2l0,0l5.4-20.2c0.1-0.5,0.1-0.9-0.2-1.2C41.9,4.2,41.5,4,41,4H11.5z"/>
</g>
<g>
	<g>
		<path class="st0" d="M100.9,30.5l-2.4-10.8c-0.4-1.6-0.4-4.2,0-5.9l1.8-7.9c0.4-1.6-0.7-2.9-2.3-2.9H72.1c-1.7,0-3.3,1.3-3.7,2.9
			l-1.8,7.9c-0.4,1.6-0.4,4.2,0,5.8l1.8,7.9c0.4,1.6,1,4.2,1.3,5.8l1.8,7.9c0.4,1.6,0.4,4.2,0,5.9l-1.8,7.9
			c-0.4,1.6,0.7,2.9,2.3,2.9h25.8c1.6,0,3.3-1.3,3.7-2.9l1.8-7.9c0.4-1.6,0.4-4.2,0-5.8L100.9,30.5"/>
	</g>
	<path d="M97.8,59H72c-1.1,0-2.1-0.5-2.7-1.2c-0.6-0.8-0.8-1.8-0.6-2.9l1.8-7.9c0.3-1.5,0.3-3.9,0-5.4l-1.8-7.9
		c-0.4-1.6-1-4.2-1.3-5.8l-1.8-7.9c-0.4-1.8-0.4-4.5,0-6.3l1.8-7.9C67.9,3.6,69.9,2,72,2h25.8c1.1,0,2.1,0.5,2.7,1.2
		s0.9,1.8,0.6,2.9L99.4,14c-0.3,1.5-0.3,3.9,0,5.4l2.4,10.8l2.5,10.8c0.4,1.8,0.4,4.5,0,6.3l-1.8,7.9C102,57.4,100,59,97.8,59z
		 M72,4c-1.2,0-2.4,1-2.7,2.1l-1.8,7.9c-0.3,1.5-0.3,3.9,0,5.4l1.8,7.9c0.4,1.6,1,4.2,1.3,5.9l1.8,7.9c0.4,1.8,0.4,4.5,0,6.3
		l-1.8,7.9c-0.1,0.5,0,0.9,0.2,1.2c0.2,0.3,0.7,0.5,1.1,0.5h25.8c1.2,0,2.4-1,2.7-2.1l1.8-7.9c0.3-1.5,0.3-3.9,0-5.4l-2.5-10.8
		c0,0,0,0,0,0l-2.4-10.8c-0.4-1.8-0.4-4.5,0-6.3l1.8-7.9c0.1-0.5,0-0.9-0.2-1.2C98.7,4.2,98.3,4,97.8,4H72z"/>
</g>
<g>
	<g>
		<path class="st0" d="M86.3,10.4c0-1.7,1.3-3,3-3h29.4c1.7,0,3,1.3,3,3v20.8c0,1.7-1.3,3-3,3H89.3c-1.7,0-3-1.3-3-3V10.4z"/>
	</g>
	<path d="M118.8,35.2H89.4c-2.2,0-4-1.8-4-4V10.4c0-2.2,1.8-4,4-4h29.4c2.2,0,4,1.8,4,4v20.8C122.8,33.4,121,35.2,118.8,35.2z
		 M89.4,8.4c-1.1,0-2,0.9-2,2v20.8c0,1.1,0.9,2,2,2h29.4c1.1,0,2-0.9,2-2V10.4c0-1.1-0.9-2-2-2H89.4z"/>
</g>
</svg>
