<?xml version="1.0" encoding="utf-8"?>
<!-- Generator: Adobe Illustrator 27.0.1, SVG Export Plug-In . SVG Version: 6.00 Build 0)  -->
<svg version="1.1" xmlns="http://www.w3.org/2000/svg" xmlns:xlink="http://www.w3.org/1999/xlink" x="0px" y="0px" width="90.1px"
	 height="90.1px" viewBox="0 0 90.1 90.1" style="enable-background:new 0 0 90.1 90.1;" xml:space="preserve">
<style type="text/css">
	.st0{display:none;}
	.st1{display:inline;}
</style>
<g id="Layer_1" class="st0">
	<path class="st1" d="M11.6,0.9l74.1,37.1c5.9,2.9,5.9,11.4,0,14.3L11.6,89.3C6.3,91.9,0,88.1,0,82.1L0,8C0,2.1,6.3-1.8,11.6,0.9z"
		/>
</g>
<g id="Layer_2">
	<path d="M17,90.1H8c-4.4,0-8-3.6-8-8V8c0-4.4,3.6-8,8-8h9c4.4,0,8,3.6,8,8v74.1C25,86.6,21.4,90.1,17,90.1z"/>
	<path d="M82.1,90.1h-9c-4.4,0-8-3.6-8-8V8c0-4.4,3.6-8,8-8h9c4.4,0,8,3.6,8,8v74.1C90.1,86.6,86.5,90.1,82.1,90.1z"/>
	<path d="M49.6,90.1h-9c-4.4,0-8-3.6-8-8V8c0-4.4,3.6-8,8-8h9c4.4,0,8,3.6,8,8v74.1C57.6,86.6,54,90.1,49.6,90.1z"/>
</g>
</svg>
